<svg width="40" height="40" viewBox="0 0 40 40" fill="none" xmlns="http://www.w3.org/2000/svg">
<path d="M20.0242 26.1637C22.7257 26.1637 24.9156 23.9737 24.9156 21.2723C24.9156 18.5708 22.7257 16.3809 20.0242 16.3809C17.3228 16.3809 15.1328 18.5708 15.1328 21.2723C15.1328 23.9737 17.3228 26.1637 20.0242 26.1637Z" stroke="white" stroke-width="2.5" stroke-linecap="round" stroke-linejoin="round"/>
<path d="M31.9025 20.7596C33.8433 20.7596 35.4166 19.1863 35.4166 17.2455C35.4166 15.3048 33.8433 13.7314 31.9025 13.7314C29.9617 13.7314 28.3884 15.3048 28.3884 17.2455C28.3884 19.1863 29.9617 20.7596 31.9025 20.7596Z" stroke="white" stroke-width="2.5" stroke-linecap="round" stroke-linejoin="round"/>
<path d="M27.3363 34.8836C29.2771 34.8836 30.8504 33.3103 30.8504 31.3696C30.8504 29.4288 29.2771 27.8555 27.3363 27.8555C25.3956 27.8555 23.8223 29.4288 23.8223 31.3696C23.8223 33.3103 25.3956 34.8836 27.3363 34.8836Z" stroke="white" stroke-width="2.5" stroke-linecap="round" stroke-linejoin="round"/>
<path d="M12.6003 34.8836C14.541 34.8836 16.1143 33.3103 16.1143 31.3696C16.1143 29.4288 14.541 27.8555 12.6003 27.8555C10.6595 27.8555 9.08618 29.4288 9.08618 31.3696C9.08618 33.3103 10.6595 34.8836 12.6003 34.8836Z" stroke="white" stroke-width="2.5" stroke-linecap="round" stroke-linejoin="round"/>
<path d="M8.09734 20.9872C10.0381 20.9872 11.6114 19.4138 11.6114 17.4731C11.6114 15.5323 10.0381 13.959 8.09734 13.959C6.15656 13.959 4.58325 15.5323 4.58325 17.4731C4.58325 19.4138 6.15656 20.9872 8.09734 20.9872Z" stroke="white" stroke-width="2.5" stroke-linecap="round" stroke-linejoin="round"/>
<path d="M19.8866 12.1444C21.8274 12.1444 23.4007 10.5711 23.4007 8.63029C23.4007 6.68952 21.8274 5.11621 19.8866 5.11621C17.9459 5.11621 16.3726 6.68952 16.3726 8.63029C16.3726 10.5711 17.9459 12.1444 19.8866 12.1444Z" stroke="white" stroke-width="2.5" stroke-linecap="round" stroke-linejoin="round"/>
<path d="M19.8867 8.63086L20.0242 21.2719" stroke="white" stroke-width="2.5" stroke-linecap="round" stroke-linejoin="round"/>
<path d="M31.9027 17.2461L26.8774 18.9493" stroke="white" stroke-width="2.5" stroke-linecap="round" stroke-linejoin="round"/>
<path d="M27.3364 31.3694L24.4021 27.3174" stroke="white" stroke-width="2.5" stroke-linecap="round" stroke-linejoin="round"/>
<path d="M12.6001 31.3691L15.7585 27.0732" stroke="white" stroke-width="2.5" stroke-linecap="round" stroke-linejoin="round"/>
<path d="M8.09741 17.4727L20.0242 21.2718" stroke="white" stroke-width="2.5" stroke-linecap="round" stroke-linejoin="round"/>
</svg>
