<svg width="40" height="40" viewBox="0 0 40 40" fill="none" xmlns="http://www.w3.org/2000/svg">
<g clip-path="url(#clip0_245_238)">
<path d="M17.0286 2.96718H29.9917C30.5575 2.96718 31.0185 2.50616 31.0185 1.94036V1.9194C31.0185 1.3536 30.5575 0.892578 29.9917 0.892578H17.0286C16.4628 0.892578 16.0017 1.3536 16.0017 1.9194V1.94036C15.9975 2.50616 16.4585 2.96718 17.0286 2.96718Z" fill="white"/>
<path d="M15.9976 5.8759C15.9976 6.4417 16.4586 6.90273 17.0244 6.90273H34.4594C35.0252 6.90273 35.4862 6.4417 35.4862 5.8759V5.85495C35.4862 5.28915 35.0252 4.82812 34.4594 4.82812H17.0244C16.4586 4.82812 15.9976 5.28915 15.9976 5.85495V5.8759Z" fill="white"/>
<path d="M15.9976 9.80754C15.9976 10.3733 16.4586 10.8344 17.0244 10.8344H34.4594C35.0252 10.8344 35.4862 10.3733 35.4862 9.80754V9.78659C35.4862 9.22079 35.0252 8.75977 34.4594 8.75977H17.0244C16.4586 8.75977 15.9976 9.22079 15.9976 9.78659V9.80754Z" fill="white"/>
<path d="M15.9976 15.7255C15.9976 16.2913 16.4586 16.7523 17.0244 16.7523H29.9875C30.5533 16.7523 31.0143 16.2913 31.0143 15.7255V15.7046C31.0143 15.1388 30.5533 14.6777 29.9875 14.6777H17.0286C16.4628 14.6777 16.0018 15.1388 16.0018 15.7046L15.9976 15.7255Z" fill="white"/>
<path d="M15.9976 19.6601C15.9976 20.2259 16.4586 20.6869 17.0244 20.6869H26.3915C26.9573 20.6869 27.4183 20.2259 27.4183 19.6601V19.6391C27.4183 19.0733 26.9573 18.6123 26.3915 18.6123H17.0286C16.4628 18.6123 16.0018 19.0733 16.0018 19.6391L15.9976 19.6601Z" fill="white"/>
<path d="M15.9976 23.5917C15.9976 24.1575 16.4586 24.6185 17.0244 24.6185H34.4594C35.0252 24.6185 35.4862 24.1575 35.4862 23.5917V23.5708C35.4862 23.005 35.0252 22.5439 34.4594 22.5439H17.0244C16.4586 22.5439 15.9976 23.005 15.9976 23.5708V23.5917Z" fill="white"/>
<path d="M15.9976 30.3231C15.9976 30.8764 16.446 31.3206 16.995 31.3206H33.923C34.4762 31.3206 34.9204 30.8722 34.9204 30.3231V30.3022C34.9204 29.7489 34.472 29.3047 33.923 29.3047H16.995C16.4419 29.3047 15.9976 29.7531 15.9976 30.3022V30.3231Z" fill="white"/>
<path d="M15.9976 34.1454C15.9976 34.6986 16.446 35.1429 16.995 35.1429H31.6766C32.2297 35.1429 32.674 34.6944 32.674 34.1454V34.1244C32.674 33.5712 32.2256 33.127 31.6766 33.127H16.995C16.4419 33.127 15.9976 33.5754 15.9976 34.1244V34.1454Z" fill="white"/>
<path d="M15.9976 37.9628C15.9976 38.516 16.446 38.9603 16.995 38.9603H23.6966C24.2499 38.9603 24.6941 38.5119 24.6941 37.9628V37.9418C24.6941 37.3886 24.2457 36.9443 23.6966 36.9443H16.995C16.4419 36.9443 15.9976 37.3928 15.9976 37.9418V37.9628Z" fill="white"/>
<path d="M5.3645 6.18262H6.35767C6.36685 6.18262 6.37459 6.18532 6.37915 6.1875C6.38341 6.18956 6.38285 6.19008 6.38013 6.18652L7.72974 8.00488L8.20923 8.65137L8.57544 7.93555L8.68188 7.72754L8.79224 7.94336L9.15454 8.64941L9.63501 8.01855L11.0295 6.18848C11.0285 6.18971 11.0289 6.18826 11.0325 6.18652C11.0364 6.18463 11.0433 6.18264 11.052 6.18262H11.9993C12.226 6.18262 12.3496 6.34754 12.3499 6.47461V11.2305H5.02661V6.47461C5.02687 6.34046 5.1537 6.18278 5.3645 6.18262ZM8.78247 6.17871L8.68188 6.375L8.5813 6.17871H8.78247Z" stroke="white"/>
<path d="M8.68799 0.5C9.81575 0.5 10.7366 1.42013 10.7368 2.54785C10.7368 3.67573 9.81587 4.59668 8.68799 4.59668C7.56027 4.59649 6.64014 3.67562 6.64014 2.54785C6.64032 1.41659 7.55984 0.500188 8.68799 0.5Z" stroke="white"/>
<path d="M5.3645 19.9678H6.35767C6.36694 19.9678 6.37462 19.9705 6.37915 19.9727C6.38334 19.9747 6.38279 19.9751 6.38013 19.9717L7.72974 21.79L8.20825 22.4365L8.57544 21.7207L8.68188 21.5127L8.79224 21.7285L9.15454 22.4346L9.63501 21.8037L11.0295 19.9736C11.0285 19.975 11.0288 19.9735 11.0325 19.9717C11.0364 19.9698 11.0432 19.9678 11.052 19.9678H11.9993C12.226 19.9678 12.3496 20.1327 12.3499 20.2598V25.0156H5.02563L5.01392 20.2598C5.01418 20.1327 5.13786 19.9679 5.3645 19.9678ZM8.78247 19.9639L8.68188 20.1602L8.5813 19.9639H8.78247Z" stroke="white"/>
<path d="M8.68799 14.2842C9.81575 14.2842 10.7366 15.2043 10.7368 16.332C10.7368 17.4599 9.81587 18.3809 8.68799 18.3809C7.56026 18.3807 6.64014 17.4598 6.64014 16.332C6.64032 15.2008 7.55985 14.2844 8.68799 14.2842Z" stroke="white"/>
<path d="M5.3645 34.4521H6.35767C6.36692 34.4521 6.3746 34.4549 6.37915 34.457C6.38338 34.4591 6.38283 34.4596 6.38013 34.4561L7.72974 36.2744L8.20825 36.9209L8.57544 36.2051L8.68091 35.9971L8.79224 36.2129L9.15454 36.9189L9.63501 36.2881L11.0295 34.458C11.0284 34.4594 11.0288 34.4579 11.0325 34.4561C11.0364 34.4542 11.0432 34.4522 11.052 34.4521H11.9993C12.226 34.4521 12.3496 34.6171 12.3499 34.7441L12.3381 39.5H5.01392V34.7441C5.01418 34.6172 5.13784 34.4523 5.3645 34.4521ZM8.78247 34.4482L8.68188 34.6445L8.5813 34.4482H8.78247Z" stroke="white"/>
<path d="M8.68799 28.7695C9.81575 28.7695 10.7366 29.6897 10.7368 30.8174C10.7368 31.9453 9.81586 32.8662 8.68799 32.8662C7.56028 32.866 6.64014 31.9452 6.64014 30.8174C6.64032 29.6861 7.55984 28.7697 8.68799 28.7695Z" stroke="white"/>
</g>
<defs>
<clipPath id="clip0_245_238">
<rect width="40" height="40" fill="white"/>
</clipPath>
</defs>
</svg>
