<svg width="34" height="37" viewBox="0 0 34 37" fill="none" xmlns="http://www.w3.org/2000/svg">
<path d="M33.8462 16C33.8462 12.2308 32.4615 8.61538 30 5.84615C29.9231 5.76923 29.7692 5.61538 29.6923 5.53846C26.6154 2.15385 22 0 16.9231 0C12.0769 0 7.61538 2 4.53846 5.07692C4.53846 5.07692 4.53846 5.07692 4.46154 5.07692C1.61538 8 0 11.9231 0 16C0 20.0769 1.61538 24 4.53846 26.9231C5.15385 27.5385 6.07692 27.5385 6.69231 26.9231C7.30769 26.3077 7.30769 25.3077 6.69231 24.6923C4.46154 22.4615 3.15385 19.3077 3.15385 16.0769C3.15385 13.2308 4.15385 10.6154 5.76923 8.46154C6.07692 8.07692 6.30769 7.76923 6.69231 7.46154C6.76923 7.38461 6.84615 7.30769 6.84615 7.23077C9.38461 4.61538 13 3.07692 16.9231 3.07692C24.4615 3.07692 30.6154 8.92308 30.6923 16.0769C30.6923 19.3077 29.3846 22.4615 27.0769 24.6923C26.4615 25.3077 26.4615 26.3077 27.0769 26.9231C27.6923 27.5385 28.6923 27.5385 29.3077 26.9231C32.2308 24 33.8462 20.1538 33.8462 16Z" fill="white"/>
<path d="M27.3845 16.0771C27.3845 16.0002 27.3845 16.0002 27.3845 16.0771C27.3845 10.5387 22.6922 6.07715 16.923 6.07715C12.1538 6.07715 8.15375 9.07715 6.84606 13.1541C6.53837 14.0771 6.38452 15.0002 6.38452 16.0002C6.38452 18.3848 7.3076 20.6925 8.99991 22.3848C9.61529 23.0002 10.6153 23.0002 11.2307 22.3848C11.8461 21.7695 11.8461 20.7695 11.2307 20.1541C10.1538 19.0771 9.53837 17.6156 9.53837 16.0771C9.53837 12.3079 12.9999 9.30792 16.923 9.30792C20.8461 9.30792 24.3076 12.3848 24.3076 16.0771C24.3076 17.6156 23.6922 19.0771 22.6153 20.1541C21.9999 20.7695 21.9999 21.7695 22.6153 22.3848C23.2307 23.0002 24.1538 23.0002 24.7691 22.3848C26.4614 20.6925 27.3845 18.4618 27.3845 16.0771Z" fill="white"/>
<path d="M18.6154 23.3848H15.2308C13.9231 23.3848 12.7693 24.4617 12.7693 25.8463V34.5386C12.7693 35.8463 13.8462 37.0001 15.2308 37.0001H18.6154C19.9231 37.0001 21.077 35.9232 21.077 34.5386V25.7694C21.077 24.4617 19.9231 23.3848 18.6154 23.3848Z" fill="white"/>
<path d="M16.9231 20.462C19.2172 20.462 21.077 18.6022 21.077 16.3081C21.077 14.014 19.2172 12.1543 16.9231 12.1543C14.629 12.1543 12.7693 14.014 12.7693 16.3081C12.7693 18.6022 14.629 20.462 16.9231 20.462Z" fill="white"/>
</svg>
