<svg width="40" height="40" viewBox="0 0 40 40" fill="none" xmlns="http://www.w3.org/2000/svg">
<path d="M21.575 10.7809C23.5839 10.7809 25.2125 9.1523 25.2125 7.14336C25.2125 5.13442 23.5839 3.50586 21.575 3.50586C19.5661 3.50586 17.9375 5.13442 17.9375 7.14336C17.9375 9.1523 19.5661 10.7809 21.575 10.7809Z" stroke="white" stroke-width="2.5"/>
<path d="M33.5188 23.3873C35.5278 23.3873 37.1563 21.7587 37.1563 19.7498C37.1563 17.7409 35.5278 16.1123 33.5188 16.1123C31.5099 16.1123 29.8813 17.7409 29.8813 19.7498C29.8813 21.7587 31.5099 23.3873 33.5188 23.3873Z" stroke="white" stroke-width="2.5"/>
<path d="M21.575 35.2438C23.5839 35.2438 25.2125 33.6152 25.2125 31.6063C25.2125 29.5973 23.5839 27.9688 21.575 27.9688C19.5661 27.9688 17.9375 29.5973 17.9375 31.6063C17.9375 33.6152 19.5661 35.2438 21.575 35.2438Z" stroke="white" stroke-width="2.5"/>
<path d="M9.4749 29.9059C11.4838 29.9059 13.1124 28.2773 13.1124 26.2684C13.1124 24.2594 11.4838 22.6309 9.4749 22.6309C7.46597 22.6309 5.8374 24.2594 5.8374 26.2684C5.8374 28.2773 7.46597 29.9059 9.4749 29.9059Z" stroke="white" stroke-width="2.5"/>
<path d="M9.4749 15.6813C11.4838 15.6813 13.1124 14.0527 13.1124 12.0438C13.1124 10.0348 11.4838 8.40625 9.4749 8.40625C7.46597 8.40625 5.8374 10.0348 5.8374 12.0438C5.8374 14.0527 7.46597 15.6813 9.4749 15.6813Z" stroke="white" stroke-width="2.5"/>
<path d="M21.5688 21.2314C23.1912 21.2314 24.5063 19.9163 24.5063 18.2939C24.5063 16.6716 23.1912 15.3564 21.5688 15.3564C19.9465 15.3564 18.6313 16.6716 18.6313 18.2939C18.6313 19.9163 19.9465 21.2314 21.5688 21.2314Z" stroke="white" stroke-width="2.5"/>
<path d="M12.6062 10.1873L18.0625 8.08105" stroke="white" stroke-width="2.5"/>
<path d="M24.125 9.74414L30.925 17.2004" stroke="white" stroke-width="2.5"/>
<path d="M31.2937 22.625L24.1687 29.0563" stroke="white" stroke-width="2.5"/>
<path d="M11.4751 15.0811L19.3188 28.7561" stroke="white" stroke-width="2.5"/>
<path d="M12.6938 27.9629L17.9376 30.3941" stroke="white" stroke-width="2.5"/>
<path d="M10.8374 22.8939L19.6062 10.2002" stroke="white" stroke-width="2.5"/>
<path d="M12.825 13.4688L18.9625 16.9375" stroke="white" stroke-width="2.5"/>
<path d="M24.5125 18.625L29.8812 19.0313" stroke="white" stroke-width="2.5"/>
<path d="M21.5688 21.2373L21.5751 27.9623" stroke="white" stroke-width="2.5"/>
</svg>
