<svg width="40" height="40" viewBox="0 0 40 40" fill="none" xmlns="http://www.w3.org/2000/svg">
<g clip-path="url(#clip0_245_256)">
<path d="M34.2857 15.3927C34.2857 7.46415 27.8929 1.07129 20 1.07129C12.1071 1.07129 5.71429 7.46415 5.71429 15.357C5.71429 15.357 5.71429 15.357 5.71429 15.3927C2.53571 15.5713 0 18.2141 0 21.4284V22.1427C0 25.4999 2.71429 28.2141 6.07143 28.2141H6.39286L8.92857 32.2499C10.7143 35.107 13.75 36.7856 17.1071 36.7856H17.6071C17.9286 37.9999 19.0357 38.9284 20.3571 38.9284C21.9286 38.9284 23.2143 37.6427 23.2143 36.0713C23.2143 34.4999 21.9286 33.2141 20.3571 33.2141C19.0357 33.2141 17.9286 34.1427 17.6071 35.357H17.1071C14.25 35.357 11.6429 33.8927 10.1429 31.4641L8.07143 28.2141H8.57143C9.35714 28.2141 10 27.5713 10 26.7856V16.7856C10 15.9999 9.35714 15.357 8.57143 15.357H7.14286C7.14286 8.24986 12.8929 2.49986 20 2.49986C27.1071 2.49986 32.8571 8.24986 32.8571 15.357H31.4286C30.6429 15.357 30 15.9999 30 16.7856V26.7856C30 27.5713 30.6429 28.2141 31.4286 28.2141H33.9286C37.2857 28.2141 40 25.4999 40 22.1427V21.4284C40 18.2141 37.4643 15.5713 34.2857 15.3927ZM20.3571 34.6427C21.1429 34.6427 21.7857 35.2856 21.7857 36.0713C21.7857 36.857 21.1429 37.4999 20.3571 37.4999C19.5714 37.4999 18.9286 36.857 18.9286 36.0713C18.9286 35.2856 19.5714 34.6427 20.3571 34.6427ZM8.57143 16.7856V26.7856H6.07143C3.5 26.7856 1.42857 24.7141 1.42857 22.1427V21.4284C1.42857 18.857 3.5 16.7856 6.07143 16.7856H8.57143ZM38.5714 22.1427C38.5714 24.7141 36.5 26.7856 33.9286 26.7856H31.4286V16.7856H33.9286C36.5 16.7856 38.5714 18.857 38.5714 21.4284V22.1427Z" fill="white"/>
<path d="M25.9286 6.46416C25.8572 6.42845 25.7501 6.35702 25.6429 6.28559C25.5358 6.21416 25.4286 6.14273 25.3572 6.10702C25.0358 5.89273 24.5715 5.99987 24.3929 6.35702C24.2144 6.71416 24.2858 7.10702 24.6429 7.3213C24.7144 7.35702 24.8215 7.42845 24.9286 7.49987C25.0358 7.5713 25.1429 7.64273 25.2501 7.67845C25.3572 7.74987 25.5001 7.78559 25.6072 7.78559C25.8572 7.78559 26.0715 7.67845 26.2144 7.42845C26.3929 7.10702 26.2858 6.67845 25.9286 6.46416Z" fill="white"/>
<path d="M19.9999 4.64258C16.9642 4.64258 14.1071 5.96401 12.1428 8.24972C11.8928 8.53544 11.9285 8.99972 12.2142 9.24972C12.3571 9.35686 12.4999 9.42829 12.6785 9.42829C12.8928 9.42829 13.0713 9.35686 13.2142 9.17829C14.9285 7.21401 17.3928 6.07115 19.9999 6.07115C20.6428 6.07115 21.2856 6.14258 21.9285 6.28544C22.3213 6.35686 22.6785 6.10686 22.7856 5.74972C22.8928 5.39258 22.6071 4.99972 22.2499 4.89258C21.4999 4.71401 20.7499 4.64258 19.9999 4.64258Z" fill="white"/>
</g>
<defs>
<clipPath id="clip0_245_256">
<rect width="40" height="40" fill="white"/>
</clipPath>
</defs>
</svg>
