<svg width="122" height="18" viewBox="0 0 122 18" fill="none" xmlns="http://www.w3.org/2000/svg">
<path d="M10.2957 2.58313L11.6155 5.24466C11.7955 5.61515 12.2755 5.97052 12.6805 6.03857L15.0727 6.43931C16.6025 6.6964 16.9625 7.81545 15.8601 8.91937L14.0003 10.7945C13.6853 11.1121 13.5129 11.7245 13.6103 12.1631L14.1428 14.4844C14.5627 16.3217 13.5953 17.0325 11.983 16.0722L9.74077 14.7339C9.33585 14.4919 8.66842 14.4919 8.25592 14.7339L6.0137 16.0722C4.40887 17.0325 3.43399 16.3141 3.85394 14.4844L4.38638 12.1631C4.48387 11.7245 4.31139 11.1121 3.99642 10.7945L2.13663 8.91937C1.04175 7.81545 1.39421 6.6964 2.92404 6.43931L5.31628 6.03857C5.71373 5.97052 6.19368 5.61515 6.37366 5.24466L7.6935 2.58313C8.41342 1.13896 9.58327 1.13896 10.2957 2.58313Z" fill="url(#paint0_linear_287_7355)" stroke="url(#paint1_linear_287_7355)" stroke-linecap="round" stroke-linejoin="round"/>
<path d="M36.2957 2.58313L37.6155 5.24466C37.7955 5.61515 38.2755 5.97052 38.6805 6.03857L41.0727 6.43931C42.6025 6.6964 42.9625 7.81545 41.8601 8.91937L40.0003 10.7945C39.6853 11.1121 39.5129 11.7245 39.6103 12.1631L40.1428 14.4844C40.5627 16.3217 39.5953 17.0325 37.983 16.0722L35.7408 14.7339C35.3358 14.4919 34.6684 14.4919 34.2559 14.7339L32.0137 16.0722C30.4089 17.0325 29.434 16.3141 29.8539 14.4844L30.3864 12.1631C30.4839 11.7245 30.3114 11.1121 29.9964 10.7945L28.1366 8.91937C27.0417 7.81545 27.3942 6.6964 28.924 6.43931L31.3163 6.03857C31.7137 5.97052 32.1937 5.61515 32.3737 5.24466L33.6935 2.58313C34.4134 1.13896 35.5833 1.13896 36.2957 2.58313Z" fill="url(#paint2_linear_287_7355)" stroke="url(#paint3_linear_287_7355)" stroke-linecap="round" stroke-linejoin="round"/>
<path d="M62.2957 2.58313L63.6155 5.24466C63.7955 5.61515 64.2755 5.97052 64.6805 6.03857L67.0727 6.43931C68.6025 6.6964 68.9625 7.81545 67.8601 8.91937L66.0003 10.7945C65.6853 11.1121 65.5129 11.7245 65.6103 12.1631L66.1428 14.4844C66.5627 16.3217 65.5953 17.0325 63.983 16.0722L61.7408 14.7339C61.3358 14.4919 60.6684 14.4919 60.2559 14.7339L58.0137 16.0722C56.4089 17.0325 55.434 16.3141 55.8539 14.4844L56.3864 12.1631C56.4839 11.7245 56.3114 11.1121 55.9964 10.7945L54.1366 8.91937C53.0417 7.81545 53.3942 6.6964 54.924 6.43931L57.3163 6.03857C57.7137 5.97052 58.1937 5.61515 58.3737 5.24466L59.6935 2.58313C60.4134 1.13896 61.5833 1.13896 62.2957 2.58313Z" fill="url(#paint4_linear_287_7355)" stroke="url(#paint5_linear_287_7355)" stroke-linecap="round" stroke-linejoin="round"/>
<path d="M88.2957 2.58313L89.6155 5.24466C89.7955 5.61515 90.2755 5.97052 90.6805 6.03857L93.0727 6.43931C94.6025 6.6964 94.9625 7.81545 93.8601 8.91937L92.0003 10.7945C91.6853 11.1121 91.5129 11.7245 91.6103 12.1631L92.1428 14.4844C92.5627 16.3217 91.5953 17.0325 89.983 16.0722L87.7408 14.7339C87.3358 14.4919 86.6684 14.4919 86.2559 14.7339L84.0137 16.0722C82.4089 17.0325 81.434 16.3141 81.8539 14.4844L82.3864 12.1631C82.4839 11.7245 82.3114 11.1121 81.9964 10.7945L80.1366 8.91937C79.0417 7.81545 79.3942 6.6964 80.924 6.43931L83.3163 6.03857C83.7137 5.97052 84.1937 5.61515 84.3737 5.24466L85.6935 2.58313C86.4134 1.13896 87.5833 1.13896 88.2957 2.58313Z" fill="url(#paint6_linear_287_7355)" stroke="url(#paint7_linear_287_7355)" stroke-linecap="round" stroke-linejoin="round"/>
<path d="M114.296 2.58313L115.616 5.24466C115.796 5.61515 116.275 5.97052 116.68 6.03857L119.073 6.43931C120.603 6.6964 120.963 7.81545 119.86 8.91937L118 10.7945C117.685 11.1121 117.513 11.7245 117.61 12.1631L118.143 14.4844C118.563 16.3217 117.595 17.0325 115.983 16.0722L113.741 14.7339C113.336 14.4919 112.668 14.4919 112.256 14.7339L110.014 16.0722C108.409 17.0325 107.434 16.3141 107.854 14.4844L108.386 12.1631C108.484 11.7245 108.311 11.1121 107.996 10.7945L106.137 8.91937C105.042 7.81545 105.394 6.6964 106.924 6.43931L109.316 6.03857C109.714 5.97052 110.194 5.61515 110.374 5.24466L111.693 2.58313C112.413 1.13896 113.583 1.13896 114.296 2.58313Z" fill="white" stroke="url(#paint8_linear_287_7355)" stroke-linecap="round" stroke-linejoin="round"/>
<defs>
<linearGradient id="paint0_linear_287_7355" x1="1.5" y1="9" x2="16.5" y2="9" gradientUnits="userSpaceOnUse">
<stop stop-color="#F25E25"/>
<stop offset="1" stop-color="#F97F11"/>
</linearGradient>
<linearGradient id="paint1_linear_287_7355" x1="1.5" y1="9" x2="16.5" y2="9" gradientUnits="userSpaceOnUse">
<stop stop-color="#F25E25"/>
<stop offset="1" stop-color="#F97F11"/>
</linearGradient>
<linearGradient id="paint2_linear_287_7355" x1="27.5" y1="9" x2="42.5" y2="9" gradientUnits="userSpaceOnUse">
<stop stop-color="#F25E25"/>
<stop offset="1" stop-color="#F97F11"/>
</linearGradient>
<linearGradient id="paint3_linear_287_7355" x1="27.5" y1="9" x2="42.5" y2="9" gradientUnits="userSpaceOnUse">
<stop stop-color="#F25E25"/>
<stop offset="1" stop-color="#F97F11"/>
</linearGradient>
<linearGradient id="paint4_linear_287_7355" x1="53.5" y1="9" x2="68.5" y2="9" gradientUnits="userSpaceOnUse">
<stop stop-color="#F25E25"/>
<stop offset="1" stop-color="#F97F11"/>
</linearGradient>
<linearGradient id="paint5_linear_287_7355" x1="53.5" y1="9" x2="68.5" y2="9" gradientUnits="userSpaceOnUse">
<stop stop-color="#F25E25"/>
<stop offset="1" stop-color="#F97F11"/>
</linearGradient>
<linearGradient id="paint6_linear_287_7355" x1="79.5" y1="9" x2="94.5" y2="9" gradientUnits="userSpaceOnUse">
<stop stop-color="#F25E25"/>
<stop offset="1" stop-color="#F97F11"/>
</linearGradient>
<linearGradient id="paint7_linear_287_7355" x1="79.5" y1="9" x2="94.5" y2="9" gradientUnits="userSpaceOnUse">
<stop stop-color="#F25E25"/>
<stop offset="1" stop-color="#F97F11"/>
</linearGradient>
<linearGradient id="paint8_linear_287_7355" x1="105.5" y1="9" x2="120.5" y2="9" gradientUnits="userSpaceOnUse">
<stop stop-color="#F25E25"/>
<stop offset="1" stop-color="#F97F11"/>
</linearGradient>
</defs>
</svg>
