<svg width="24" height="24" viewBox="0 0 24 24" fill="none" xmlns="http://www.w3.org/2000/svg">
<path fill-rule="evenodd" clip-rule="evenodd" d="M22.5 4.5C22.5 2.8425 21.1575 1.5 19.5 1.5H4.5C2.8425 1.5 1.5 2.8425 1.5 4.5V19.5C1.5 21.1575 2.8425 22.5 4.5 22.5H19.5C21.1575 22.5 22.5 21.1575 22.5 19.5V4.5Z" fill="white"/>
<path d="M5.6507 18.1045H7.1507L11.1557 13.552L14.6395 18.097H18.712L13.3682 11.032L17.8907 5.89453H16.3907L12.6745 10.117L9.48695 5.89828H5.2832L10.4545 12.6445L5.64695 18.1083L5.6507 18.1045ZM7.56695 7.01953H8.93195L16.4545 16.972H15.1982L7.5707 7.01953H7.56695Z" fill="#170901"/>
</svg>
