<svg width="15" height="19" viewBox="0 0 15 19" fill="none" xmlns="http://www.w3.org/2000/svg">
<path fill-rule="evenodd" clip-rule="evenodd" d="M0.661759 0.648105C0.940298 0.375937 1.32989 0.198437 2.0672 0.101949C2.82635 0.00182051 3.83128 0 5.27313 0H9.29102C10.7329 0 11.7378 0.00182051 12.497 0.101949C13.2343 0.198437 13.6239 0.375937 13.9024 0.648105C14.18 0.921182 14.3612 1.30349 14.4604 2.02533C14.5623 2.76901 14.5641 3.75391 14.5641 5.16572V12.3012H3.04573C2.22376 12.3012 1.66304 12.3003 1.18243 12.4269C0.752784 12.5397 0.354091 12.7236 0 12.9657V5.16663C0 3.75391 0.00182037 2.76901 0.103769 2.02533C0.202988 1.30349 0.38413 0.921182 0.661759 0.648105ZM3.2651 3.44442C3.06745 3.44248 2.8771 3.51901 2.7358 3.65724C2.59451 3.79546 2.51381 3.98408 2.51141 4.18173C2.51141 4.58953 2.8482 4.91995 3.26419 4.91995H11.3C11.4975 4.92165 11.6876 4.84501 11.8287 4.70681C11.9698 4.56862 12.0503 4.38013 12.0527 4.18264C12.0506 3.985 11.9701 3.79628 11.829 3.65788C11.6879 3.51949 11.4976 3.44272 11.3 3.44442H3.2651ZM2.51141 7.62615C2.51141 7.21927 2.8482 6.88884 3.26419 6.88884H8.28609C8.48374 6.8869 8.67409 6.96344 8.81539 7.10166C8.95668 7.23988 9.03738 7.42851 9.03979 7.62615C9.03762 7.82396 8.95703 8.01282 8.81571 8.15124C8.67439 8.28966 8.4839 8.36632 8.28609 8.36437H3.26419C3.06669 8.36607 2.87658 8.28943 2.73548 8.15123C2.59438 8.01304 2.51381 7.82364 2.51141 7.62615Z" fill="#F67219"/>
<path d="M3.16124 13.7766C2.17907 13.7766 1.83591 13.783 1.57193 13.8522C1.22022 13.9428 0.895829 14.1175 0.62672 14.3614C0.35761 14.6053 0.151864 14.911 0.0272217 15.2521C0.041179 15.5986 0.0666659 15.9078 0.103683 16.1797C0.202901 16.9015 0.384043 17.2838 0.661672 17.5569C0.940212 17.8291 1.3298 18.0066 2.06711 18.1031C2.82627 18.2032 3.8312 18.205 5.27305 18.205H9.29093C10.7328 18.205 11.7377 18.2032 12.4969 18.104C13.2342 18.0066 13.6238 17.8291 13.9023 17.5569C14.0989 17.363 14.2482 17.1145 14.3529 16.7286H3.2641C3.06661 16.7303 2.87649 16.6536 2.73539 16.5154C2.59429 16.3772 2.51372 16.1888 2.51132 15.9913C2.51132 15.5835 2.84812 15.2531 3.2641 15.2531H14.5368C14.555 14.8289 14.5613 14.3428 14.5641 13.7766H3.16124Z" fill="#F67219"/>
</svg>
