<svg width="30" height="30" viewBox="0 0 30 30" fill="none" xmlns="http://www.w3.org/2000/svg">
<path d="M5.50097 20.1658C3.66772 21.7057 3.05664 26.2766 3.05664 26.2766C3.05664 26.2766 7.62753 25.6655 9.16746 23.8323C10.0352 22.8057 10.023 21.2291 9.05746 20.2758C8.58241 19.8224 7.95665 19.5604 7.30027 19.5401C6.64388 19.5198 6.00313 19.7426 5.50097 20.1658Z" stroke="white" stroke-width="2.44433" stroke-linecap="round" stroke-linejoin="round"/>
<path d="M14.6665 18.3325L11 14.666C11.6504 12.9787 12.4693 11.3614 13.4443 9.83848C14.8684 7.56158 16.8513 5.68685 19.2044 4.39263C21.5575 3.09842 24.2026 2.42774 26.8881 2.44439C26.8881 5.76868 25.9348 11.6106 19.5551 15.8882C18.0114 16.8644 16.3737 17.6832 14.6665 18.3325Z" stroke="white" stroke-width="2.44433" stroke-linecap="round" stroke-linejoin="round"/>
<path d="M11.0014 14.6662H4.89062C4.89062 14.6662 5.56281 10.9631 7.33495 9.77756C9.31486 8.45762 13.4458 9.77756 13.4458 9.77756" stroke="white" stroke-width="2.44433" stroke-linecap="round" stroke-linejoin="round"/>
<path d="M14.668 18.3325V24.4433C14.668 24.4433 18.3711 23.7711 19.5566 21.999C20.8766 20.0191 19.5566 15.8882 19.5566 15.8882" stroke="white" stroke-width="2.44433" stroke-linecap="round" stroke-linejoin="round"/>
</svg>
