<svg width="27" height="27" viewBox="0 0 27 27" fill="none" xmlns="http://www.w3.org/2000/svg">
<path d="M13.25 25.75L10.75 18.25H0.75L3.25 25.75H13.25ZM13.25 25.75H18.25" stroke="white" stroke-width="1.5" stroke-linecap="round" stroke-linejoin="round"/>
<path d="M13.25 14.5V13.875C13.25 11.518 13.25 10.3395 12.5177 9.60724C11.7855 8.875 10.607 8.875 8.25 8.875C5.89298 8.875 4.71446 8.875 3.98224 9.60724C3.25 10.3395 3.25 11.518 3.25 13.875V14.5" stroke="white" stroke-width="1.5" stroke-linecap="round" stroke-linejoin="round"/>
<path d="M22 14.5C22 15.8807 20.8807 17 19.5 17C18.1193 17 17 15.8807 17 14.5C17 13.1193 18.1193 12 19.5 12C20.8807 12 22 13.1193 22 14.5Z" stroke="white" stroke-width="1.5" stroke-linecap="round" stroke-linejoin="round"/>
<path d="M10.75 3.25C10.75 4.63071 9.63071 5.75 8.25 5.75C6.86929 5.75 5.75 4.63071 5.75 3.25C5.75 1.86929 6.86929 0.75 8.25 0.75C9.63071 0.75 10.75 1.86929 10.75 3.25Z" stroke="white" stroke-width="1.5" stroke-linecap="round" stroke-linejoin="round"/>
<path d="M15.75 20.125H23.25C24.6307 20.125 25.75 21.2443 25.75 22.625V23.25C25.75 24.6307 24.6307 25.75 23.25 25.75H22" stroke="white" stroke-width="1.5" stroke-linecap="round" stroke-linejoin="round"/>
</svg>
