<svg preserveAspectRatio="none" overflow="visible" style="display: block;" width="562.333" height="52.0293" viewBox="0 0 562.333 52.0293" fill="none" xmlns="http://www.w3.org/2000/svg">
<g id="Group 1707483839">
<rect id="Rectangle 34624581" x="2.66667" y="3.02734" width="557" height="47.415" fill="#F86432" fill-opacity="0.14"/>
<path id="Vector 22" d="M557 49.3626C557 50.8354 558.194 52.0293 559.667 52.0293C561.139 52.0293 562.333 50.8354 562.333 49.3626C562.333 47.8899 561.139 46.696 559.667 46.696C558.194 46.696 557 47.8899 557 49.3626ZM559.667 2.66602H559.167V49.3626H559.667H560.167V2.66602H559.667Z" fill="#F25E25"/>
<path id="Vector 23" d="M0 2.66667C0 1.19391 1.19391 0 2.66667 0C4.13943 0 5.33333 1.19391 5.33333 2.66667C5.33333 4.13943 4.13943 5.33334 2.66667 5.33334C1.19391 5.33334 0 4.13943 0 2.66667ZM2.66667 49.3633H2.16667V2.66667H2.66667H3.16667V49.3633H2.66667Z" fill="#F25E25"/>
</g>
</svg>
